<svg xmlns="http://www.w3.org/2000/svg" viewBox="0 0 102 102"><defs><style>.cls-1,.cls-2,.cls-3{fill:none;stroke:#fff;}.cls-1{stroke-width:2px;}.cls-2,.cls-3{stroke-linecap:round;stroke-width:5px;}.cls-3{stroke-dasharray:5.77 9.62;}</style></defs><title>Asset 10</title><g id="Layer_2" data-name="Layer 2"><g id="Home_Intro" data-name="Home/Intro"><circle class="cls-1" cx="51" cy="51" r="50"/><circle class="cls-2" cx="40.58" cy="21.99" r="7.58"/><path class="cls-2" d="M71.23,80a7.58,7.58,0,0,1-7.58,7.58A7.94,7.94,0,0,1,56.3,81.9a6.12,6.12,0,0,1-.24-1.9c.12-3.12,2.83-7.58,7.58-7.58A7.58,7.58,0,0,1,71.23,80Z"/><path class="cls-2" d="M56.3,81.9q-1.55-.19-3-.47"/><path class="cls-3" d="M44.41,78c-3.28-2.18-5-5-5.29-8C37.66,52.16,58.79,59.58,64.46,48.58S62,32.7,54.37,28.76"/><path class="cls-2" d="M50.11,26.53c-.93-.51-1.79-1-2.56-1.56"/></g></g></svg>