<svg xmlns="http://www.w3.org/2000/svg" viewBox="0 0 52.17 48.52"><defs><style>.cls-1{fill:#6a813b;}</style></defs><title>Asset 26</title><g id="Layer_2" data-name="Layer 2"><g id="Wetland_Ponds_Menu" data-name="Wetland/Ponds Menu"><path class="cls-1" d="M52,35.1l.11-.07-.18-.65c0-.14-.08-.27-.11-.42L43.6,4h0a5,5,0,0,0-9.91,1h0L32.06,14.6l-3-5.2a3,3,0,0,0-5.22,0l-3.21,5.55L19.22,5A5,5,0,0,0,9.3,4h0L1,32a11.83,11.83,0,1,0,22.67,4.73,11.76,11.76,0,0,0-.31-2.6l-1.14-8h7.91l-1.45,8.59,0,0A11.86,11.86,0,1,0,52,35.1ZM11.84,45.89a9.2,9.2,0,1,1,9.2-9.2A9.21,9.21,0,0,1,11.84,45.89Zm28.5,0a9.2,9.2,0,1,1,9.2-9.2A9.21,9.21,0,0,1,40.34,45.89Z"/></g></g></svg>